<svg width="809" height="710" viewBox="0 0 809 710" fill="none" xmlns="http://www.w3.org/2000/svg">
<g filter="url(#filter0_d)">
<path fill-rule="evenodd" clip-rule="evenodd" d="M555.176 475.576C562.193 459.492 575.16 462.813 575.16 462.813C579.283 462.882 580.257 465.853 579.256 469.59L550.262 577.796C549.262 581.53 545.659 583.669 543.584 580.656C543.584 580.656 534.956 576.189 535.487 564.51" fill="#2F4793"/>
<path d="M555.176 475.576C562.193 459.492 575.16 462.813 575.16 462.813C579.283 462.882 580.257 465.853 579.256 469.59L550.262 577.796C549.262 581.53 545.659 583.669 543.584 580.656C543.584 580.656 534.956 576.189 535.487 564.51" stroke="#1C1C1D"/>
<path fill-rule="evenodd" clip-rule="evenodd" d="M595.85 327.641C603.638 320.804 610.763 323.657 612.768 324.695C613.132 324.884 613.319 324.897 613.319 324.897C617.517 326.26 619.995 330.817 618.851 335.087L602.391 396.516C601.248 400.782 596.837 403.449 592.521 402.475C591.88 402.498 582.779 401.467 578.789 391.316" fill="#2F4793"/>
<path d="M595.85 327.641C603.638 320.804 610.763 323.657 612.768 324.695C613.132 324.884 613.319 324.897 613.319 324.897C617.517 326.26 619.995 330.817 618.851 335.087L602.391 396.516C601.248 400.782 596.837 403.449 592.521 402.475C591.88 402.498 582.779 401.467 578.789 391.316" stroke="#1C1C1D"/>
<path d="M213.11 188.017C223.891 143.221 269.817 116.428 314.118 129.089L465.116 172.241L552.373 193.503C597.592 204.521 624.246 251.291 610.679 295.812L567.072 438.906L528.847 602.188C518.42 646.729 473.202 673.805 429.015 661.965L186.591 597.007C142.855 585.288 117.218 539.992 129.687 496.463L187.191 295.706L213.11 188.017Z" fill="#2F4793" stroke="#1C1C1D" stroke-width="2"/>
<path d="M468.781 197.231L468.815 197.239L548.522 214.988C581.591 222.352 601.336 256.372 591.326 288.739L544.375 440.548L544.363 440.585L544.355 440.622L508.767 597.205C501.475 629.291 468.98 648.891 437.198 640.375L190.631 574.307C159.165 565.876 140.812 533.19 149.994 501.935L215.354 279.465L215.364 279.431L215.371 279.397L234.415 192.544C241.631 159.631 275.278 139.774 307.579 149.365L468.748 197.221L468.781 197.231Z" fill="#4F66AF" stroke="#1C1C1D" stroke-width="2"/>
<path d="M240.539 282.807L240.548 282.779L240.554 282.75L259.256 199.814C264.378 177.103 288.109 163.833 310.24 171.11C356.998 186.484 433.198 210.466 490.424 223.215C503.842 226.204 520.202 229.464 535.298 232.351C558.711 236.829 573.104 260.801 565.864 283.5C548.024 339.427 517.768 437.354 500.739 509.701C495.141 533.486 488.698 564.17 483.697 588.69C479.176 610.855 456.934 624.731 435.093 618.879L202.946 556.675C181.862 551.026 169.52 529.174 175.566 508.202L240.539 282.807Z" fill="#00C6AE" stroke="#1C1C1D" stroke-width="2"/>
<rect width="272" height="359" transform="translate(287.933 178.599) rotate(15)" fill="#00C6AE"/>
<path d="M293.454 187.843L288.924 204.747L285.012 203.699L288.701 189.934L285.32 189.028L286.161 185.889L293.454 187.843ZM305.948 205.892L305.094 209.08L292.32 205.657L292.999 203.121L301.169 198.71C302.038 198.236 302.656 197.797 303.023 197.395C303.394 196.977 303.642 196.534 303.767 196.068C303.948 195.391 303.852 194.814 303.48 194.334C303.129 193.843 302.51 193.479 301.625 193.242C300.884 193.044 300.177 193.009 299.504 193.14C298.835 193.254 298.224 193.539 297.671 193.994L295.313 191.395C296.236 190.59 297.35 190.069 298.656 189.832C299.966 189.58 301.37 189.654 302.867 190.055C304.123 190.391 305.161 190.894 305.983 191.563C306.825 192.22 307.402 192.996 307.715 193.89C308.048 194.773 308.078 195.722 307.806 196.736C307.56 197.654 307.136 198.463 306.534 199.164C305.932 199.866 304.938 200.583 303.551 201.316L298.68 203.944L305.948 205.892ZM311.805 201.793C311.145 201.616 310.65 201.242 310.32 200.67C309.99 200.099 309.915 199.475 310.096 198.799C310.282 198.107 310.656 197.612 311.219 197.314C311.786 197 312.4 196.931 313.06 197.108C313.72 197.285 314.217 197.651 314.552 198.207C314.89 198.746 314.967 199.362 314.781 200.054C314.6 200.73 314.224 201.233 313.652 201.563C313.081 201.893 312.465 201.97 311.805 201.793ZM309.482 210.462C308.822 210.285 308.327 209.911 307.997 209.34C307.667 208.768 307.592 208.144 307.774 207.468C307.959 206.776 308.333 206.281 308.896 205.983C309.463 205.669 310.077 205.601 310.737 205.778C311.397 205.954 311.894 206.321 312.229 206.876C312.567 207.415 312.644 208.031 312.458 208.723C312.277 209.4 311.901 209.903 311.329 210.233C310.758 210.563 310.142 210.639 309.482 210.462ZM321.402 213.76C320.002 213.385 318.847 212.704 317.938 211.719C317.029 210.733 316.435 209.504 316.156 208.032C315.898 206.548 316.013 204.896 316.5 203.077C316.988 201.258 317.712 199.778 318.673 198.638C319.655 197.486 320.786 196.711 322.066 196.312C323.346 195.913 324.687 195.901 326.087 196.277C327.488 196.652 328.643 197.332 329.552 198.318C330.461 199.304 331.045 200.538 331.303 202.022C331.581 203.495 331.477 205.14 330.989 206.959C330.502 208.779 329.767 210.264 328.786 211.416C327.825 212.556 326.704 213.326 325.424 213.724C324.143 214.123 322.803 214.135 321.402 213.76ZM322.289 210.452C323.319 210.728 324.243 210.501 325.06 209.771C325.893 209.045 326.557 207.756 327.053 205.905C327.549 204.053 327.618 202.605 327.26 201.56C326.917 200.519 326.231 199.861 325.201 199.585C324.186 199.313 323.263 199.54 322.43 200.266C321.613 200.996 320.957 202.287 320.461 204.138C319.965 205.99 319.888 207.436 320.23 208.476C320.588 209.521 321.275 210.18 322.289 210.452ZM339.852 207.083C342.235 207.721 343.862 208.666 344.735 209.918C345.623 211.174 345.854 212.599 345.427 214.193C345.151 215.223 344.641 216.096 343.897 216.811C343.158 217.51 342.188 217.975 340.987 218.205C339.807 218.424 338.444 218.326 336.899 217.912C335.707 217.593 334.573 217.125 333.496 216.509C332.439 215.88 331.586 215.169 330.936 214.373L333.284 211.793C333.799 212.449 334.438 213.025 335.202 213.523C335.97 214.005 336.797 214.365 337.682 214.602C338.664 214.865 339.489 214.879 340.156 214.644C340.823 214.408 341.249 213.944 341.434 213.252C341.628 212.528 341.477 211.901 340.981 211.371C340.5 210.845 339.536 210.388 338.087 210L333.764 208.842L337.183 199.56L347.494 202.323L346.653 205.463L339.602 203.573L338.476 206.714L339.852 207.083Z" fill="white"/>
<path d="M522.604 263.557L519.851 262.819L518.9 266.369L515.085 265.346L516.036 261.797L506.932 259.357L507.637 256.725L518.479 248.139L522.584 249.238L512.471 257.425L517.011 258.641L517.858 255.478L521.553 256.468L520.705 259.631L523.458 260.369L522.604 263.557ZM537.893 271.665C536.508 271.294 535.336 270.678 534.376 269.817C533.437 268.944 532.789 267.916 532.433 266.734C532.093 265.556 532.096 264.323 532.441 263.035C532.786 261.747 533.4 260.678 534.284 259.827C535.183 258.981 536.256 258.423 537.501 258.153C538.768 257.871 540.093 257.916 541.477 258.287C542.846 258.653 543.959 259.262 544.818 260.114C545.698 260.953 546.228 261.967 546.411 263.154L543.068 263.941C542.711 262.569 541.897 261.712 540.625 261.371C539.643 261.108 538.744 261.212 537.927 261.684C537.111 262.155 536.554 262.946 536.256 264.057C535.958 265.168 536.045 266.131 536.517 266.948C536.988 267.764 537.715 268.304 538.697 268.567C539.985 268.912 541.118 268.578 542.098 267.563L544.592 269.94C543.849 270.845 542.885 271.45 541.7 271.753C540.53 272.061 539.261 272.031 537.893 271.665Z" fill="white"/>
<g filter="url(#filter1_d)">
<rect x="298.806" y="508.66" width="41" height="95.9286" rx="5" transform="rotate(105 298.806 508.66)" fill="white"/>
<rect x="297.581" y="509.367" width="39" height="93.9286" rx="4" transform="rotate(105 297.581 509.367)" stroke="black" stroke-width="2"/>
</g>
<g filter="url(#filter2_d)">
<rect x="468.878" y="554.231" width="41" height="95.9286" rx="5" transform="rotate(105 468.878 554.231)" fill="white"/>
<rect x="467.653" y="554.938" width="39" height="93.9286" rx="4" transform="rotate(105 467.653 554.938)" stroke="black" stroke-width="2"/>
</g>
<g filter="url(#filter3_d)">
<rect x="368.008" y="527.203" width="41" height="63.1429" rx="5" transform="rotate(105 368.008 527.203)" fill="white"/>
<rect x="366.783" y="527.91" width="39" height="61.1429" rx="4" transform="rotate(105 366.783 527.91)" stroke="black" stroke-width="2"/>
</g>
<mask id="path-16-inside-1" fill="white">
<path d="M468.149 442.397C472.212 445.469 473.04 451.279 469.675 455.103C456.48 470.094 439.825 481.714 421.099 488.914C399.497 497.221 376.002 499.316 353.271 494.963C330.54 490.61 309.481 479.982 292.476 464.282C275.472 448.582 263.2 428.436 257.051 406.123C250.902 383.811 251.119 360.223 257.68 338.028C264.24 315.833 276.881 295.917 294.172 280.534C311.464 265.15 332.715 254.913 355.523 250.98C375.294 247.571 395.549 249.017 414.562 255.132C419.411 256.692 421.676 262.106 419.76 266.825C417.844 271.545 412.474 273.776 407.606 272.28C391.802 267.422 375.034 266.332 358.657 269.156C339.242 272.504 321.152 281.219 306.432 294.314C291.713 307.41 280.952 324.363 275.368 343.257C269.784 362.15 269.598 382.229 274.833 401.223C280.068 420.216 290.513 437.365 304.988 450.73C319.464 464.095 337.39 473.142 356.74 476.848C376.09 480.553 396.091 478.77 414.479 471.699C429.991 465.734 443.833 456.208 454.917 443.94C458.331 440.161 464.086 439.326 468.149 442.397Z"/>
</mask>
<path d="M468.149 442.397C472.212 445.469 473.04 451.279 469.675 455.103C456.48 470.094 439.825 481.714 421.099 488.914C399.497 497.221 376.002 499.316 353.271 494.963C330.54 490.61 309.481 479.982 292.476 464.282C275.472 448.582 263.2 428.436 257.051 406.123C250.902 383.811 251.119 360.223 257.68 338.028C264.24 315.833 276.881 295.917 294.172 280.534C311.464 265.15 332.715 254.913 355.523 250.98C375.294 247.571 395.549 249.017 414.562 255.132C419.411 256.692 421.676 262.106 419.76 266.825C417.844 271.545 412.474 273.776 407.606 272.28C391.802 267.422 375.034 266.332 358.657 269.156C339.242 272.504 321.152 281.219 306.432 294.314C291.713 307.41 280.952 324.363 275.368 343.257C269.784 362.15 269.598 382.229 274.833 401.223C280.068 420.216 290.513 437.365 304.988 450.73C319.464 464.095 337.39 473.142 356.74 476.848C376.09 480.553 396.091 478.77 414.479 471.699C429.991 465.734 443.833 456.208 454.917 443.94C458.331 440.161 464.086 439.326 468.149 442.397Z" fill="#4F66AF" stroke="#1C1C1D" stroke-width="4" mask="url(#path-16-inside-1)"/>
<mask id="path-17-inside-2" fill="white">
<path d="M444.952 424.859C449.063 427.967 449.908 433.856 446.411 437.642C436.552 448.32 424.344 456.627 410.701 461.873C394.146 468.239 376.14 469.845 358.72 466.508C341.3 463.172 325.161 455.028 312.13 442.996C299.098 430.964 289.694 415.525 284.982 398.426C280.269 381.326 280.436 363.25 285.463 346.241C290.491 329.231 300.178 313.969 313.43 302.179C326.681 290.39 342.967 282.544 360.446 279.53C374.85 277.047 389.59 277.926 403.528 282.045C408.47 283.506 410.761 288.996 408.823 293.771C406.885 298.547 401.45 300.786 396.475 299.444C385.799 296.566 374.587 296.03 363.617 297.922C349.571 300.344 336.484 306.649 325.835 316.123C315.186 325.597 307.401 337.862 303.361 351.531C299.321 365.199 299.187 379.726 302.974 393.467C306.761 407.208 314.318 419.615 324.79 429.284C335.262 438.953 348.231 445.498 362.23 448.179C376.229 450.86 390.699 449.569 404.003 444.453C414.392 440.458 423.747 434.254 431.441 426.313C435.027 422.612 440.841 421.751 444.952 424.859Z"/>
</mask>
<path d="M444.952 424.859C449.063 427.967 449.908 433.856 446.411 437.642C436.552 448.32 424.344 456.627 410.701 461.873C394.146 468.239 376.14 469.845 358.72 466.508C341.3 463.172 325.161 455.028 312.13 442.996C299.098 430.964 289.694 415.525 284.982 398.426C280.269 381.326 280.436 363.25 285.463 346.241C290.491 329.231 300.178 313.969 313.43 302.179C326.681 290.39 342.967 282.544 360.446 279.53C374.85 277.047 389.59 277.926 403.528 282.045C408.47 283.506 410.761 288.996 408.823 293.771C406.885 298.547 401.45 300.786 396.475 299.444C385.799 296.566 374.587 296.03 363.617 297.922C349.571 300.344 336.484 306.649 325.835 316.123C315.186 325.597 307.401 337.862 303.361 351.531C299.321 365.199 299.187 379.726 302.974 393.467C306.761 407.208 314.318 419.615 324.79 429.284C335.262 438.953 348.231 445.498 362.23 448.179C376.229 450.86 390.699 449.569 404.003 444.453C414.392 440.458 423.747 434.254 431.441 426.313C435.027 422.612 440.841 421.751 444.952 424.859Z" fill="#ADFFF5" stroke="#1C1C1D" stroke-width="4" mask="url(#path-17-inside-2)"/>
<mask id="path-18-inside-3" fill="white">
<path d="M420.065 406.043C424.647 409.507 425.603 416.104 421.452 420.074C415.265 425.992 407.942 430.652 399.887 433.75C388.581 438.097 376.284 439.194 364.387 436.915C352.491 434.637 341.469 429.075 332.57 420.858C323.67 412.641 317.248 402.097 314.029 390.42C310.811 378.742 310.925 366.397 314.358 354.781C317.792 343.165 324.408 332.742 333.457 324.691C342.507 316.639 353.629 311.281 365.566 309.223C374.071 307.757 382.747 308.007 391.093 309.92C396.691 311.203 399.25 317.358 397.09 322.68C394.929 328.002 388.851 330.429 383.172 329.573C378.525 328.872 373.775 328.915 369.101 329.721C360.99 331.119 353.432 334.76 347.283 340.231C341.134 345.701 336.638 352.784 334.305 360.677C331.972 368.57 331.895 376.958 334.082 384.893C336.269 392.828 340.633 399.992 346.68 405.576C352.727 411.159 360.216 414.939 368.3 416.487C376.383 418.035 384.739 417.29 392.421 414.336C396.848 412.633 400.95 410.236 404.581 407.254C409.02 403.609 415.483 402.579 420.065 406.043Z"/>
</mask>
<path d="M420.065 406.043C424.647 409.507 425.603 416.104 421.452 420.074C415.265 425.992 407.942 430.652 399.887 433.75C388.581 438.097 376.284 439.194 364.387 436.915C352.491 434.637 341.469 429.075 332.57 420.858C323.67 412.641 317.248 402.097 314.029 390.42C310.811 378.742 310.925 366.397 314.358 354.781C317.792 343.165 324.408 332.742 333.457 324.691C342.507 316.639 353.629 311.281 365.566 309.223C374.071 307.757 382.747 308.007 391.093 309.92C396.691 311.203 399.25 317.358 397.09 322.68C394.929 328.002 388.851 330.429 383.172 329.573C378.525 328.872 373.775 328.915 369.101 329.721C360.99 331.119 353.432 334.76 347.283 340.231C341.134 345.701 336.638 352.784 334.305 360.677C331.972 368.57 331.895 376.958 334.082 384.893C336.269 392.828 340.633 399.992 346.68 405.576C352.727 411.159 360.216 414.939 368.3 416.487C376.383 418.035 384.739 417.29 392.421 414.336C396.848 412.633 400.95 410.236 404.581 407.254C409.02 403.609 415.483 402.579 420.065 406.043Z" fill="white" stroke="#1C1C1D" stroke-width="4" mask="url(#path-18-inside-3)"/>
</g>
<path d="M805.715 113.381C781.257 99.2369 735.698 72.3373 729.063 66.3148C728.618 65.9112 727.904 65.8258 727.425 66.1892L558.712 194.426C558.143 194.859 558.198 195.731 558.817 196.089L635.864 240.572C636.489 240.933 636.538 241.818 635.955 242.245L507.988 335.988C507.003 336.71 507.925 338.232 509.021 337.692L724.795 231.409C725.512 231.056 725.546 230.045 724.853 229.646L665.691 195.488C665.02 195.101 665.025 194.13 665.701 193.75L805.687 115.109C806.363 114.73 806.386 113.769 805.715 113.381Z" fill="white" stroke="#1C1C1D" stroke-width="2"/>
<path d="M2.21148 34.7082C21.9396 29.4014 57.8242 19.4027 64.4272 16.2619C64.9694 16.004 65.7103 16.1082 66.078 16.5829L160.413 138.366C160.851 138.931 160.571 139.759 159.881 139.944L97.9172 156.547C97.2196 156.734 96.9441 157.576 97.3964 158.139L167.754 245.725C168.519 246.678 167.234 247.909 166.316 247.104L36.8988 133.715C36.2975 133.188 36.5268 132.204 37.299 131.997L84.542 119.338C85.2906 119.137 85.5363 118.198 84.9819 117.657L1.77935 36.3883C1.22491 35.8468 1.46305 34.9096 2.21148 34.7082Z" fill="white" stroke="#1C1C1D" stroke-width="2"/>
<path d="M510.492 7.8842C516.8 14.1665 527.287 24.4288 530.618 27.0416C531.091 27.4122 531.351 28.1437 531.123 28.6996L505.296 91.8686C505.025 92.5301 504.168 92.7026 503.663 92.1972L484.319 72.853C483.808 72.3422 482.941 72.5248 482.68 73.198L466.849 113.957C466.407 115.096 464.699 114.599 464.936 113.401L478.669 44.1948C478.824 43.4107 479.792 43.1171 480.357 43.6824L494.597 57.9229C495.145 58.4709 496.082 58.2142 496.273 57.4632L508.817 8.34769C509.008 7.59675 509.942 7.3373 510.492 7.8842Z" fill="#F589B7" stroke="#1C1C1D" stroke-width="2"/>
<path d="M305.168 17.7083C300.685 22.1665 293.656 29.0372 291.062 31.1554C290.597 31.5353 290.344 32.2833 290.571 32.8392L309.139 78.2525C309.409 78.9139 310.266 79.0864 310.772 78.5811L324.299 65.0534C324.81 64.5427 325.677 64.7252 325.939 65.3984L336.215 91.8568C336.657 92.9957 338.365 92.4985 338.128 91.3002L328.812 44.3547C328.657 43.5706 327.69 43.277 327.124 43.8422L317.432 53.5345C316.884 54.0825 315.948 53.8258 315.756 53.0748L306.842 18.1726C306.651 17.4217 305.717 17.1617 305.168 17.7083Z" fill="#F589B7" stroke="#1C1C1D" stroke-width="2"/>
<defs>
<filter id="filter0_d" x="91.9999" y="83" width="593.255" height="646.995" filterUnits="userSpaceOnUse" color-interpolation-filters="sRGB">
<feFlood flood-opacity="0" result="BackgroundImageFix"/>
<feColorMatrix in="SourceAlpha" type="matrix" values="0 0 0 0 0 0 0 0 0 0 0 0 0 0 0 0 0 0 127 0"/>
<feOffset dx="20" dy="20"/>
<feColorMatrix type="matrix" values="0 0 0 0 0 0 0 0 0 0 0 0 0 0 0 0 0 0 0.13 0"/>
<feBlend mode="normal" in2="BackgroundImageFix" result="effect1_dropShadow"/>
<feBlend mode="normal" in="SourceGraphic" in2="effect1_dropShadow" result="shape"/>
</filter>
<filter id="filter1_d" x="196.657" y="484.954" width="101.027" height="64.1861" filterUnits="userSpaceOnUse" color-interpolation-filters="sRGB">
<feFlood flood-opacity="0" result="BackgroundImageFix"/>
<feColorMatrix in="SourceAlpha" type="matrix" values="0 0 0 0 0 0 0 0 0 0 0 0 0 0 0 0 0 0 127 0"/>
<feOffset dy="2"/>
<feColorMatrix type="matrix" values="0 0 0 0 0.12549 0 0 0 0 0.12549 0 0 0 0 0.12549 0 0 0 1 0"/>
<feBlend mode="normal" in2="BackgroundImageFix" result="effect1_dropShadow"/>
<feBlend mode="normal" in="SourceGraphic" in2="effect1_dropShadow" result="shape"/>
</filter>
<filter id="filter2_d" x="366.729" y="530.525" width="101.027" height="64.1861" filterUnits="userSpaceOnUse" color-interpolation-filters="sRGB">
<feFlood flood-opacity="0" result="BackgroundImageFix"/>
<feColorMatrix in="SourceAlpha" type="matrix" values="0 0 0 0 0 0 0 0 0 0 0 0 0 0 0 0 0 0 127 0"/>
<feOffset dy="2"/>
<feColorMatrix type="matrix" values="0 0 0 0 0.12549 0 0 0 0 0.12549 0 0 0 0 0.12549 0 0 0 1 0"/>
<feBlend mode="normal" in2="BackgroundImageFix" result="effect1_dropShadow"/>
<feBlend mode="normal" in="SourceGraphic" in2="effect1_dropShadow" result="shape"/>
</filter>
<filter id="filter3_d" x="297.527" y="511.983" width="69.3579" height="55.7006" filterUnits="userSpaceOnUse" color-interpolation-filters="sRGB">
<feFlood flood-opacity="0" result="BackgroundImageFix"/>
<feColorMatrix in="SourceAlpha" type="matrix" values="0 0 0 0 0 0 0 0 0 0 0 0 0 0 0 0 0 0 127 0"/>
<feOffset dy="2"/>
<feColorMatrix type="matrix" values="0 0 0 0 0.12549 0 0 0 0 0.12549 0 0 0 0 0.12549 0 0 0 1 0"/>
<feBlend mode="normal" in2="BackgroundImageFix" result="effect1_dropShadow"/>
<feBlend mode="normal" in="SourceGraphic" in2="effect1_dropShadow" result="shape"/>
</filter>
</defs>
</svg>
